<?xml version="1.0" standalone="no"?>
<!DOCTYPE svg PUBLIC "-//W3C//DTD SVG 20010904//EN"
 "http://www.w3.org/TR/2001/REC-SVG-20010904/DTD/svg10.dtd">
<svg version="1.0" xmlns="http://www.w3.org/2000/svg"
 width="494.000000pt" height="494.000000pt" viewBox="0 0 494.000000 494.000000"
 preserveAspectRatio="xMidYMid meet">
<metadata>
Created by potrace 1.11, written by Peter Selinger 2001-2013
</metadata>
<g transform="translate(0.000000,494.000000) scale(0.100000,-0.100000)"
fill="#000000" stroke="none">
<path d="M2314 4286 c-90 -28 -238 -117 -332 -200 -19 -17 -89 -98 -156 -181
-66 -82 -152 -188 -192 -235 -39 -47 -103 -133 -142 -192 -60 -92 -71 -115
-77 -167 -4 -33 -4 -69 0 -81 5 -15 -2 -31 -28 -59 -48 -53 -69 -114 -65 -186
l3 -60 18 33 c23 42 53 72 72 72 21 0 21 -115 -1 -155 -89 -165 -100 -215 -65
-304 14 -35 19 -64 16 -85 -8 -42 18 -163 48 -222 35 -68 95 -134 180 -195 40
-29 74 -54 76 -56 3 -2 -5 -10 -16 -18 -21 -15 -43 -103 -43 -176 0 -54 154
-468 306 -820 46 -107 84 -203 84 -212 0 -16 24 -17 280 -17 l280 0 0 28 c0
15 27 80 60 144 36 70 66 144 76 189 29 127 153 407 225 508 66 91 83 182 54
277 -19 61 -19 84 -1 84 21 0 28 -26 33 -127 7 -120 -5 -163 -80 -277 -83
-125 -113 -196 -131 -302 -28 -159 -49 -215 -132 -349 -48 -79 -70 -154 -60
-208 10 -55 21 -52 17 6 -4 66 8 105 69 207 58 98 80 160 115 323 28 131 42
164 128 290 32 48 68 110 78 138 23 61 25 175 4 245 -8 27 -15 50 -15 52 0 1
11 2 25 2 31 0 43 -26 51 -118 8 -88 -14 -176 -68 -267 -102 -173 -118 -211
-148 -350 -30 -141 -65 -231 -143 -368 -47 -82 -70 -178 -48 -200 8 -8 11 3
11 40 0 37 8 65 31 109 18 32 51 96 74 141 24 45 56 99 73 120 64 82 237 352
273 428 45 94 78 215 80 294 l2 56 7 -45 c17 -105 -30 -291 -121 -475 -27 -55
-42 -91 -33 -80 32 40 114 222 138 308 37 127 42 198 21 295 -10 45 -22 79
-26 76 -5 -3 -6 2 -3 10 3 9 1 16 -5 16 -6 0 -11 5 -11 10 0 6 14 10 30 10 17
0 30 -5 30 -12 0 -15 80 -151 86 -145 2 2 -14 35 -36 73 -42 73 -48 94 -26 94
7 0 21 -20 30 -44 9 -24 26 -52 36 -61 28 -26 26 0 -3 39 -35 46 -39 72 -13
89 31 20 90 121 115 193 11 33 25 112 32 175 9 89 19 130 44 189 86 196 81
247 -45 454 -109 182 -140 276 -140 433 0 119 -26 172 -134 273 -49 47 -145
140 -213 207 -134 133 -188 175 -246 191 -21 6 -56 27 -79 47 -66 60 -151 95
-228 94 -36 0 -83 -6 -106 -13z m182 -199 l-28 -23 58 -38 c82 -54 173 -150
211 -221 40 -76 102 -280 109 -359 l6 -61 -21 25 c-11 14 -21 28 -21 33 0 4
-11 7 -24 7 -21 0 -27 8 -41 53 -28 83 -56 113 -128 136 -85 26 -166 35 -200
22 -15 -6 -42 -24 -60 -41 -17 -16 -49 -44 -70 -61 -37 -31 -38 -31 -58 -13
-16 14 -36 19 -80 19 -51 0 -59 3 -68 23 -10 20 -8 22 24 22 24 0 35 5 35 15
0 23 -60 85 -82 85 -14 0 -18 5 -14 15 3 9 13 41 22 73 23 80 82 189 129 239
48 50 94 61 177 44 52 -11 61 -10 95 8 51 27 64 26 29 -2z m-447 -483 c27 -34
29 -90 4 -79 -10 4 -28 10 -40 12 -27 6 -26 4 -11 54 13 46 20 48 47 13z m576
-49 c98 -51 119 -103 77 -197 -38 -87 -124 -148 -208 -148 -43 0 -141 35 -180
65 -63 48 -84 180 -38 250 33 51 78 66 190 62 90 -2 108 -6 159 -32z m-405
-25 c15 -15 17 -28 13 -79 -6 -59 14 -184 28 -176 3 3 14 -4 24 -15 43 -48
217 -84 288 -61 49 16 132 109 154 172 23 63 42 63 84 2 25 -36 34 -61 39
-112 4 -36 14 -89 24 -117 l17 -50 -35 -81 c-32 -72 -96 -302 -96 -344 0 -9
-16 -41 -36 -70 -88 -130 -145 -164 -274 -162 -104 1 -181 15 -308 54 -91 28
-103 30 -203 23 -139 -8 -176 10 -229 115 -29 59 -70 222 -70 282 0 46 3 51
78 132 42 46 98 120 125 165 46 79 64 93 120 96 5 1 15 9 22 20 10 14 21 17
42 12 25 -6 26 -5 8 5 -11 7 -22 14 -24 15 -2 2 14 25 35 51 30 35 41 58 42
87 2 22 5 43 7 47 3 4 28 7 56 7 36 1 55 -4 69 -18z m-217 -58 c6 -8 21 -12
34 -9 30 6 30 -13 -1 -50 -12 -15 -28 -38 -34 -49 -11 -21 -76 -58 -91 -52 -4
2 10 53 33 113 29 79 42 103 44 85 2 -14 9 -31 15 -38z m42 18 c3 -5 2 -10 -4
-10 -5 0 -13 5 -16 10 -3 6 -2 10 4 10 5 0 13 -4 16 -10z m-177 -150 c-10 -31
-25 -46 -35 -37 -4 5 36 67 43 67 2 0 -2 -14 -8 -30z m-32 -67 c-17 -44 -94
-168 -140 -225 l-51 -63 -3 80 c-3 80 -3 80 29 105 18 14 55 46 83 72 52 49
94 64 82 31z m1345 -1320 c25 -124 -9 -299 -93 -468 -34 -70 -71 -125 -222
-331 -15 -21 -26 -31 -22 -21 3 10 6 27 6 37 0 10 16 42 36 71 31 46 33 50 10
30 -36 -33 -35 -7 2 46 115 165 233 354 210 333 -4 -3 -52 -74 -108 -158 -56
-85 -104 -151 -107 -149 -8 9 43 114 102 207 92 145 117 235 96 354 -6 36 -14
72 -17 80 -4 11 4 16 33 19 21 2 43 4 50 5 7 1 17 -23 24 -55z"/>
<path d="M2395 3440 c-15 -7 -8 -9 25 -7 42 2 45 0 48 -26 4 -36 34 -51 93
-44 27 3 51 2 54 -4 4 -5 11 -9 18 -9 14 0 -54 59 -97 83 -32 18 -107 22 -141
7z m150 -48 c-3 -3 -11 0 -18 7 -9 10 -8 11 6 5 10 -3 15 -9 12 -12z"/>
<path d="M2110 3498 c-15 -21 -17 -28 -6 -19 16 13 41 51 33 51 -2 0 -14 -15
-27 -32z"/>
<path d="M2006 3285 c-10 -28 -7 -55 8 -55 19 0 38 26 34 47 -4 23 -34 29 -42
8z"/>
<path d="M2116 3273 c-8 -20 30 -63 56 -63 29 0 33 28 8 56 -27 28 -55 31 -64
7z"/>
<path d="M2262 3228 c-2 -41 -10 -49 -62 -59 l-35 -7 31 -1 c48 -2 77 27 71
69 l-4 35 -1 -37z"/>
<path d="M1943 3056 c-28 -13 -59 -36 -69 -51 -16 -25 -16 -27 7 -51 34 -37
120 -75 180 -80 58 -5 240 33 245 51 3 12 -108 106 -151 127 -16 9 -59 18 -95
22 -56 6 -72 3 -117 -18z"/>
<path d="M3145 1936 c3 -27 6 -81 6 -120 l1 -71 10 46 c7 33 5 65 -6 120 -11
55 -14 61 -11 25z"/>
<path d="M3021 1433 c-1 -6 -21 -36 -47 -67 -25 -31 -40 -56 -35 -56 16 0 93
108 88 122 -4 8 -6 9 -6 1z"/>
<path d="M3417 2022 c32 -27 90 -67 128 -90 128 -76 166 -137 145 -236 -14
-70 -57 -139 -162 -264 -156 -185 -219 -350 -197 -510 9 -62 49 -154 89 -202
11 -14 1 12 -22 57 -38 75 -42 91 -46 171 -8 162 39 277 198 487 114 151 160
238 160 307 0 92 -31 133 -155 205 -44 26 -103 64 -131 85 -72 54 -77 47 -7
-10z"/>
<path d="M3324 2033 c4 -5 57 -49 119 -98 132 -107 152 -136 151 -220 0 -76
-24 -123 -108 -213 -94 -100 -201 -245 -241 -326 -41 -82 -51 -141 -39 -223
l8 -58 6 101 c6 92 9 106 44 170 64 116 250 364 263 350 3 -2 -21 -36 -54 -75
-50 -60 -141 -216 -131 -226 2 -2 20 29 40 68 21 40 74 116 118 170 80 96 140
182 140 200 0 5 -18 -18 -40 -51 -42 -63 -70 -92 -70 -74 0 6 5 14 11 18 25
15 69 129 69 179 0 87 -29 128 -160 227 -63 48 -119 87 -124 87 -5 1 -6 -2 -2
-6z"/>
<path d="M1604 1979 c-26 -39 -29 -50 -29 -128 0 -57 6 -105 18 -141 56 -168
375 -945 385 -936 9 10 -131 360 -236 591 -58 129 -138 363 -151 441 -11 71
-1 133 30 176 12 16 19 31 17 34 -3 2 -18 -14 -34 -37z"/>
<path d="M1506 1821 c-22 -95 -22 -145 -5 -437 12 -186 11 -209 -6 -290 -11
-55 -35 -121 -61 -174 -23 -47 -41 -86 -40 -88 8 -8 86 130 101 178 23 74 31
334 16 567 -12 195 -6 270 14 170 8 -40 8 -72 1 -107 -8 -38 -6 -70 8 -142 67
-360 69 -373 69 -508 0 -97 -6 -164 -21 -239 -12 -58 -20 -107 -17 -109 5 -5
32 87 45 157 23 122 0 449 -45 649 -14 61 -25 137 -25 169 l1 58 25 -60 c14
-33 79 -193 144 -355 105 -262 242 -567 224 -500 -9 35 -184 457 -232 561 -43
93 -121 298 -148 389 -9 30 -19 87 -23 125 l-6 70 -19 -84z"/>
<path d="M3400 1858 c49 -108 5 -251 -140 -453 -60 -85 -87 -129 -48 -81 71
89 145 200 176 265 47 97 56 204 23 269 -28 55 -36 54 -11 0z"/>
<path d="M1463 1818 c-4 -13 -8 -162 -8 -333 -1 -256 -4 -319 -17 -362 -23
-74 -56 -140 -91 -180 -16 -18 -27 -36 -25 -39 9 -8 77 74 102 125 47 92 50
125 51 478 0 183 -1 333 -2 333 -1 0 -5 -10 -10 -22z"/>
<path d="M3499 1828 c22 -29 10 -135 -22 -199 -16 -30 -80 -124 -143 -209
-122 -163 -202 -309 -229 -415 -10 -38 -14 -100 -13 -175 0 -63 3 -99 5 -80 1
19 8 84 13 143 6 60 22 143 35 185 28 87 81 186 95 177 6 -3 7 1 4 10 -4 9 -2
15 3 13 6 -2 31 24 56 57 25 33 77 95 116 138 39 42 82 95 95 116 27 41 57
133 55 165 -1 12 -7 -2 -14 -30 -16 -68 -49 -131 -92 -179 -25 -29 -29 -32
-15 -10 57 87 76 139 77 207 0 54 -4 71 -19 85 -18 16 -19 16 -7 1z"/>
<path d="M1413 1773 c-9 -24 -20 -106 -28 -228 -14 -199 -25 -258 -94 -495
-22 -74 -33 -126 -25 -115 17 23 78 208 99 298 12 55 34 251 36 332 l0 30 10
-25 c6 -15 9 -102 7 -215 l-3 -190 -32 -59 c-30 -54 -31 -57 -9 -37 14 13 34
46 47 74 20 47 22 65 18 177 -2 69 -4 207 -3 308 0 100 -2 182 -3 182 -2 0
-11 -17 -20 -37z"/>
<path d="M1309 1740 c-73 -78 -117 -177 -149 -343 -32 -161 -75 -289 -126
-374 -32 -53 -33 -56 -9 -33 48 45 92 156 134 335 53 230 87 313 173 418 51
62 37 60 -23 -3z"/>
<path d="M1255 1723 c-26 -32 -57 -80 -71 -108 -13 -27 -19 -42 -12 -31 7 10
41 58 75 107 34 49 60 89 58 89 -3 0 -25 -26 -50 -57z"/>
<path d="M3343 1712 c-10 -58 -60 -179 -69 -170 -2 2 3 26 11 53 26 86 15 83
-15 -5 -31 -93 -103 -273 -143 -362 -16 -35 -22 -60 -16 -63 5 -4 8 -3 7 2 -5
16 35 92 45 86 6 -3 7 -2 4 4 -10 16 75 214 121 283 46 69 75 152 70 202 -2
27 -5 21 -15 -30z"/>
<path d="M1181 1722 c-80 -84 -123 -202 -139 -382 -6 -58 -19 -128 -30 -158
-22 -58 -111 -206 -119 -198 -3 2 -1 11 3 18 5 7 10 22 10 33 1 11 7 44 13 74
6 29 10 65 10 80 -1 14 -7 -3 -14 -39 -7 -36 -18 -86 -25 -112 -8 -31 -9 -52
-2 -64 8 -14 15 -9 50 37 66 87 92 156 113 297 30 201 72 318 146 410 43 52
32 55 -16 4z"/>
<path d="M1331 1719 c-31 -42 -40 -75 -67 -248 -18 -114 -51 -222 -86 -279
l-22 -37 23 20 c53 46 86 143 101 292 9 98 43 218 75 267 28 42 8 30 -24 -15z"/>
<path d="M1133 1718 c-30 -32 -53 -69 -53 -85 0 -4 12 10 26 32 15 22 36 50
47 63 32 35 15 26 -20 -10z"/>
<path d="M1018 1624 c-132 -147 -179 -278 -177 -496 1 -190 17 -169 20 27 l4
180 34 73 c33 69 69 122 152 223 29 36 56 81 46 78 -1 0 -37 -38 -79 -85z"/>
<path d="M869 1655 c-37 -24 -76 -59 -87 -77 -11 -18 -43 -100 -71 -182 -44
-128 -51 -159 -50 -220 l2 -71 8 70 c20 156 101 369 163 426 17 16 49 44 71
63 22 20 38 35 35 35 -3 1 -35 -19 -71 -44z"/>
<path d="M920 1641 c-78 -82 -118 -155 -156 -282 -32 -110 -39 -158 -34 -259
2 -40 6 -18 15 80 11 108 19 151 44 213 33 81 108 201 168 268 56 62 24 45
-37 -20z"/>
<path d="M1370 1688 c-2 -59 -22 -202 -34 -238 l-15 -45 5 50 c3 28 7 66 10
85 11 73 -14 12 -31 -75 -9 -49 -39 -152 -66 -229 -43 -123 -49 -148 -48 -215
l2 -76 8 65 c17 128 30 179 62 249 18 39 36 69 39 65 15 -14 70 193 75 284 3
50 3 92 -1 92 -3 0 -6 -6 -6 -12z"/>
<path d="M998 1660 c-13 -17 -51 -65 -86 -108 -64 -78 -94 -126 -106 -172 -4
-14 9 4 28 40 20 35 51 80 70 100 19 19 55 65 80 103 47 69 55 90 14 37z"/>
<path d="M3216 1565 c-48 -177 -166 -396 -339 -630 -79 -106 -107 -167 -106
-230 l1 -50 9 53 c12 71 19 83 186 330 79 117 163 255 188 306 44 91 90 240
83 274 -2 9 -12 -14 -22 -53z"/>
<path d="M3710 1614 c0 -7 15 -34 33 -61 33 -50 35 -55 43 -107 4 -31 4 -31
-10 4 -14 34 -15 33 -9 -35 4 -60 -1 -93 -37 -235 -35 -139 -42 -182 -43 -275
-2 -101 0 -116 27 -178 41 -97 48 -91 15 13 -44 136 -41 226 12 400 22 74 44
167 48 205 l7 70 6 -57 c5 -42 25 -97 72 -195 64 -136 84 -195 112 -337 l13
-71 -3 80 c-4 80 -10 100 -95 313 l-21 54 32 -34 c19 -18 75 -68 126 -111 111
-93 137 -137 128 -211 -4 -35 -2 -46 5 -39 6 6 13 31 16 55 7 64 -23 117 -100
176 -97 74 -177 153 -206 204 -15 27 -31 45 -34 41 -4 -3 -7 -4 -7 0 0 5 -27
117 -37 150 -3 12 17 1 58 -32 35 -28 104 -72 154 -97 237 -122 305 -176 360
-287 33 -65 35 -76 35 -163 0 -56 4 -94 10 -94 14 0 13 169 -2 211 -35 106
-144 212 -313 306 -156 87 -247 144 -288 182 -50 45 -39 53 13 8 23 -19 84
-54 137 -76 106 -46 198 -106 324 -212 152 -128 184 -185 177 -321 -3 -46 -8
-92 -12 -103 -4 -11 1 -6 10 10 11 19 19 59 22 110 5 87 -7 128 -55 198 -54
78 -312 263 -478 342 -93 45 -192 124 -226 180 -11 16 -19 25 -19 19z"/>
<path d="M1000 1538 c-29 -52 -61 -164 -59 -210 0 -13 9 14 20 60 10 45 33
109 49 142 37 74 31 79 -10 8z"/>
<path d="M1037 1523 c-17 -64 -33 -201 -17 -148 12 42 41 198 36 202 -2 2 -10
-22 -19 -54z"/>
<path d="M3706 1544 c28 -68 15 -159 -45 -301 -57 -136 -91 -262 -91 -339 0
-59 29 -152 66 -209 14 -22 22 -31 18 -20 -62 168 -65 178 -61 275 3 80 8 107
36 173 18 42 36 75 40 73 4 -3 22 36 41 86 26 70 33 104 31 147 -3 66 -19 127
-38 142 -9 9 -9 1 3 -27z"/>
<path d="M3663 1502 c-12 -20 -55 -75 -95 -121 -150 -172 -169 -213 -170 -388
0 -86 4 -121 21 -171 22 -65 67 -142 82 -142 5 0 -2 17 -15 38 -50 77 -70 157
-71 287 0 112 2 124 29 178 15 32 53 84 83 115 32 33 47 44 36 27 -33 -51 -36
-61 -9 -30 33 38 112 155 108 161 -1 2 5 18 13 35 24 45 14 55 -12 11z m-53
-116 c0 -2 -8 -10 -17 -17 -16 -13 -17 -12 -4 4 13 16 21 21 21 13z"/>
<path d="M1216 1443 c-23 -47 -57 -174 -55 -210 0 -10 12 24 25 76 14 52 33
114 44 138 25 58 16 55 -14 -4z"/>
<path d="M1584 1476 c-4 -11 2 -62 14 -120 19 -88 21 -93 17 -41 l-5 60 36
-104 c39 -116 57 -233 73 -475 6 -88 14 -162 17 -165 4 -3 4 73 1 169 -4 142
-11 202 -35 315 -38 177 -107 388 -118 361z"/>
<path d="M1106 1408 c-9 -35 -23 -107 -31 -161 -8 -54 -22 -112 -30 -128 -9
-16 -13 -29 -10 -29 16 0 46 97 60 191 9 57 20 121 26 143 6 21 8 40 6 42 -3
3 -12 -23 -21 -58z"/>
<path d="M986 1393 c-16 -104 -27 -206 -23 -209 6 -6 24 100 32 184 7 68 0 85
-9 25z"/>
<path d="M3583 1253 c-29 -60 -60 -135 -68 -168 -23 -91 -17 -89 14 5 15 47
47 123 70 168 23 46 41 88 39 93 -2 5 -27 -39 -55 -98z"/>
<path d="M1537 1275 c-3 -41 -2 -87 3 -102 6 -20 9 3 9 75 1 56 -1 102 -3 102
-2 0 -6 -34 -9 -75z"/>
<path d="M3880 1347 c0 -16 86 -100 122 -118 57 -29 58 -23 2 11 -27 17 -66
50 -86 73 -21 23 -38 39 -38 34z"/>
<path d="M932 1280 c0 -14 2 -19 5 -12 2 6 2 18 0 25 -3 6 -5 1 -5 -13z"/>
<path d="M3909 1262 c34 -43 72 -76 126 -106 l30 -18 -30 24 c-16 13 -59 50
-94 83 -60 55 -62 57 -32 17z"/>
<path d="M782 1205 c0 -49 6 -112 14 -140 11 -44 12 -45 7 -10 -3 22 -9 85
-13 140 l-7 100 -1 -90z"/>
<path d="M3757 1156 c-27 -80 -37 -126 -36 -166 l2 -55 8 65 c4 36 22 103 39
150 30 81 31 83 25 35 -3 -27 -7 -102 -10 -165 l-4 -115 9 100 c5 55 13 120
17 145 l9 45 23 -63 c12 -35 25 -62 27 -59 5 5 -42 135 -55 151 -5 6 -10 18
-12 27 -2 9 -21 -34 -42 -95z"/>
<path d="M1622 1230 c0 -14 2 -19 5 -12 2 6 2 18 0 25 -3 6 -5 1 -5 -13z"/>
<path d="M1246 1141 c-9 -38 -15 -98 -15 -133 l2 -63 8 75 c4 41 12 99 18 129
16 80 6 74 -13 -8z"/>
<path d="M3472 1178 c-11 -18 -25 -51 -31 -73 -15 -55 -12 -171 5 -220 l13
-40 -7 40 c-4 22 -7 78 -6 125 0 70 5 95 26 143 30 64 30 74 0 25z"/>
<path d="M4180 1154 c55 -31 84 -57 121 -108 30 -40 38 -62 18 -51 -6 4 -1
-12 11 -36 12 -23 29 -79 36 -123 14 -78 24 -109 24 -70 0 10 -7 60 -14 110
-15 98 -38 153 -88 210 -30 34 -121 94 -143 94 -5 0 10 -12 35 -26z m164 -180
c3 -8 2 -12 -4 -9 -6 3 -10 10 -10 16 0 14 7 11 14 -7z"/>
<path d="M1640 956 c0 -112 -5 -227 -10 -256 -14 -73 -5 -75 11 -3 7 32 12
117 11 191 0 72 1 132 3 132 2 0 9 -33 16 -72 6 -40 14 -68 16 -61 2 6 -3 53
-11 102 -9 50 -16 109 -16 131 0 22 -4 40 -10 40 -6 0 -10 -75 -10 -204z"/>
<path d="M1716 1125 c10 -58 38 -135 63 -175 28 -46 27 -35 -3 33 -14 30 -32
81 -40 112 -17 67 -31 87 -20 30z"/>
<path d="M3092 1153 c4 -17 -14 -53 -24 -47 -6 4 -8 3 -5 -3 3 -5 -5 -40 -19
-78 -17 -47 -27 -97 -29 -155 l-4 -85 9 75 c11 87 32 160 65 236 14 31 20 56
14 60 -5 3 -8 2 -7 -3z"/>
<path d="M932 1088 c-23 -55 -23 -78 1 -31 14 28 30 83 24 83 -2 0 -13 -23
-25 -52z"/>
<path d="M3192 1120 c0 -14 2 -19 5 -12 2 6 2 18 0 25 -3 6 -5 1 -5 -13z"/>
<path d="M1121 1086 c-7 -27 -19 -63 -28 -80 -14 -27 -14 -29 -1 -18 18 14 52
115 46 134 -3 7 -10 -9 -17 -36z"/>
<path d="M4163 1040 c85 -92 103 -120 123 -190 10 -38 12 -40 12 -15 0 17 -5
45 -11 62 -16 45 -91 136 -152 186 -43 36 -39 30 28 -43z"/>
<path d="M4171 1117 c75 -58 129 -95 114 -78 -21 25 -99 81 -111 81 -4 0 -5
-1 -3 -3z"/>
<path d="M2904 1043 c-26 -38 -71 -97 -99 -133 -56 -70 -95 -129 -95 -145 0
-5 10 6 21 25 12 19 51 72 88 118 63 79 146 202 137 202 -2 0 -26 -30 -52 -67z"/>
<path d="M3291 1084 c0 -11 3 -14 6 -6 3 7 2 16 -1 19 -3 4 -6 -2 -5 -13z"/>
<path d="M3636 1063 c-10 -63 -5 -186 9 -228 l14 -40 -7 40 c-4 22 -6 91 -5
153 1 61 0 112 -2 112 -1 0 -5 -17 -9 -37z"/>
<path d="M3811 1062 c-1 -24 8 -74 19 -110 11 -37 24 -114 29 -170 5 -57 12
-107 15 -110 11 -10 6 152 -5 188 -5 19 -21 82 -34 140 -19 86 -23 97 -24 62z"/>
<path d="M3178 1040 c-4 -30 -7 -100 -7 -155 l2 -100 9 90 c4 50 7 119 6 155
l-3 65 -7 -55z"/>
<path d="M3962 1028 c11 -29 31 -84 44 -123 13 -38 23 -61 23 -50 1 23 -20 93
-43 147 -19 45 -20 51 -3 42 6 -4 3 2 -7 14 -32 36 -37 25 -14 -30z"/>
<path d="M2984 984 c-53 -86 -90 -171 -98 -229 -5 -38 -5 -37 8 8 16 54 79
188 121 255 14 23 24 42 21 42 -2 0 -26 -34 -52 -76z"/>
<path d="M3276 1023 c-7 -47 -6 -188 3 -227 3 -17 6 36 6 117 0 81 0 147 -1
147 -1 0 -4 -17 -8 -37z"/>
<path d="M1532 984 c-3 -65 -20 -140 -46 -205 -13 -32 -22 -59 -20 -59 2 0 14
21 28 48 31 62 49 145 44 207 -4 48 -4 48 -6 9z"/>
<path d="M4028 989 c6 -9 21 -49 31 -90 11 -41 20 -62 20 -48 1 39 -27 125
-47 140 -15 12 -16 12 -4 -2z"/>
<path d="M3895 955 c9 -65 9 -177 1 -215 -6 -31 -5 -33 6 -15 16 24 15 196 -1
240 -10 29 -10 28 -6 -10z"/>
<path d="M3501 879 c-1 -31 33 -143 54 -179 19 -33 19 -21 -1 26 -9 21 -24 70
-34 108 -11 39 -19 59 -19 45z"/>
<path d="M3734 844 c4 -41 45 -168 53 -160 2 2 -5 31 -17 65 -11 34 -25 78
-30 99 l-10 37 4 -41z"/>
<path d="M1817 838 c3 -21 9 -61 13 -90 l8 -53 0 50 c0 28 -6 68 -13 90 l-14
40 6 -37z"/>
<path d="M3796 835 c6 -48 34 -149 39 -143 2 2 -7 44 -20 93 -14 50 -22 72
-19 50z"/>
<path d="M1686 727 c-5 -48 -6 -90 -3 -93 8 -8 19 95 15 141 -3 29 -6 15 -12
-48z"/>
<path d="M2701 734 c0 -11 3 -14 6 -6 3 7 2 16 -1 19 -3 4 -6 -2 -5 -13z"/>
</g>
</svg>
